<svg width="76" height="80" viewBox="0 0 76 80" fill="none" xmlns="http://www.w3.org/2000/svg">
<g filter="url(#filter0_d_344_1862)">
<path d="M61.5795 19.3041V10.4535L60.2305 10.9137V19.3041H61.5795Z" fill="white"/>
<path d="M53.4591 15.7172L38.3298 20.8485C38.1911 20.8989 38.0461 20.9179 37.9011 20.9179C37.7561 20.9179 37.6048 20.8926 37.4661 20.8485L22.3368 15.7172V28.4069H22.3557L22.3242 28.5834C22.3242 30.09 29.3026 33.4626 37.8948 33.4626C46.487 33.4626 53.4464 30.09 53.4464 28.5834L53.4086 28.4069H53.4591V15.7172Z" fill="white"/>
<path d="M22.3317 13.2083L37.896 18.4909L53.4603 13.2083L60.2306 10.9137L61.5796 10.4535L62.292 10.2139L37.896 2L13.5 10.2139L22.3317 13.2083Z" fill="white"/>
<path d="M59.3105 21.3717V26.5346C59.3105 27.4171 60.0229 28.1295 60.9054 28.1295C61.788 28.1295 62.5003 27.4171 62.5003 26.5346V21.3717C62.5003 20.9368 62.3238 20.5396 62.0401 20.2496H59.7707C59.4871 20.5396 59.3105 20.9368 59.3105 21.3717Z" fill="white"/>
<path d="M59.5625 19.3041V20.256H59.7705H62.0399H62.2416V19.3041H61.5797H60.2307H59.5625Z" fill="white"/>
</g>
<path d="M0.84 67.4905C0.84 67.0425 0.877333 66.5665 0.952 66.0625C1.04533 65.5399 1.176 64.9892 1.344 64.4105C1.53067 63.8132 1.75467 63.1879 2.016 62.5345L4.032 63.3185C3.84533 63.8412 3.67733 64.3359 3.528 64.8025C3.39733 65.2692 3.29467 65.7079 3.22 66.1185C3.164 66.5292 3.136 66.9212 3.136 67.2945C3.136 68.0785 3.304 68.7412 3.64 69.2825C3.99467 69.8425 4.48 70.2999 5.096 70.6545C5.712 71.0092 6.412 71.2705 7.196 71.4385C7.99867 71.6065 8.848 71.6905 9.744 71.6905C10.8267 71.6905 11.8347 71.5972 12.768 71.4105C13.72 71.2239 14.5507 70.9532 15.26 70.5985C15.988 70.2625 16.5573 69.8705 16.968 69.4225C17.3787 68.9932 17.584 68.5265 17.584 68.0225C17.584 67.7799 17.4907 67.5559 17.304 67.3505C17.1173 67.1452 16.8373 66.9492 16.464 66.7625C16.0907 66.5759 15.6427 66.3985 15.12 66.2305C14.5973 66.0439 14 65.8572 13.328 65.6705L13.86 63.3465C14.8307 63.7199 15.6893 64.0372 16.436 64.2985C17.1827 64.5412 17.836 64.7372 18.396 64.8865C18.956 65.0359 19.4413 65.1479 19.852 65.2225C20.2627 65.2785 20.608 65.3065 20.888 65.3065C21.28 65.3065 21.56 65.4185 21.728 65.6425C21.9147 65.8479 22.008 66.0999 22.008 66.3985C22.008 66.6972 21.8773 66.9772 21.616 67.2385C21.3547 67.4812 21.0187 67.6025 20.608 67.6025C20.496 67.6025 20.384 67.6025 20.272 67.6025C20.16 67.6025 20.0387 67.6025 19.908 67.6025C19.796 67.6025 19.684 67.6025 19.572 67.6025C19.6093 67.7705 19.6373 67.9012 19.656 67.9945C19.6747 68.1065 19.684 68.2465 19.684 68.4145C19.684 69.1052 19.4413 69.7772 18.956 70.4305C18.4893 71.0839 17.7987 71.6719 16.884 72.1945C15.9693 72.7359 14.8587 73.1652 13.552 73.4825C12.264 73.7999 10.7893 73.9585 9.128 73.9585C7.65333 73.9585 6.28133 73.7159 5.012 73.2305C3.76133 72.7639 2.75333 72.0545 1.988 71.1025C1.22267 70.1505 0.84 68.9465 0.84 67.4905ZM11.144 79.2505C10.752 79.2505 10.416 79.1105 10.136 78.8305C9.87467 78.5692 9.744 78.2519 9.744 77.8785C9.744 77.5052 9.87467 77.1785 10.136 76.8985C10.416 76.6185 10.752 76.4785 11.144 76.4785C11.5173 76.4785 11.8347 76.6185 12.096 76.8985C12.376 77.1785 12.516 77.5052 12.516 77.8785C12.516 78.2519 12.376 78.5692 12.096 78.8305C11.8347 79.1105 11.5173 79.2505 11.144 79.2505ZM7.308 79.2505C6.916 79.2505 6.58 79.1105 6.3 78.8305C6.03867 78.5692 5.908 78.2519 5.908 77.8785C5.908 77.5052 6.03867 77.1785 6.3 76.8985C6.58 76.6185 6.916 76.4785 7.308 76.4785C7.68133 76.4785 7.99867 76.6185 8.26 76.8985C8.54 77.1785 8.68 77.5052 8.68 77.8785C8.68 78.2519 8.54 78.5692 8.26 78.8305C7.99867 79.1105 7.68133 79.2505 7.308 79.2505ZM20.6172 67.6025L20.8972 65.3065C21.6812 65.3065 22.2972 65.2412 22.7452 65.1105C23.1932 64.9612 23.5292 64.6905 23.7532 64.2985C23.9959 63.8879 24.2012 63.2999 24.3692 62.5345C24.5372 61.7692 24.7425 60.7705 24.9852 59.5385L27.1692 59.9585C27.0945 60.2945 27.0105 60.6679 26.9172 61.0785C26.8239 61.4892 26.7399 61.8999 26.6652 62.3105C26.6092 62.7025 26.5812 63.0479 26.5812 63.3465C26.5812 63.7199 26.6652 64.0559 26.8332 64.3545C27.0012 64.6532 27.3652 64.8865 27.9252 65.0545C28.4852 65.2225 29.3439 65.3065 30.5012 65.3065C30.8932 65.3065 31.1732 65.4185 31.3412 65.6425C31.5279 65.8479 31.6212 66.0999 31.6212 66.3985C31.6212 66.6972 31.4905 66.9772 31.2292 67.2385C30.9679 67.4812 30.6319 67.6025 30.2212 67.6025C29.0079 67.6025 28.0559 67.4999 27.3652 67.2945C26.6745 67.0705 26.1705 66.7439 25.8532 66.3145C25.5359 65.8665 25.3212 65.3252 25.2092 64.6905L26.0492 64.7465C25.7505 65.3439 25.4239 65.8292 25.0692 66.2025C24.7332 66.5759 24.3599 66.8652 23.9492 67.0705C23.5385 67.2759 23.0625 67.4159 22.5212 67.4905C21.9799 67.5652 21.3452 67.6025 20.6172 67.6025ZM24.9852 56.6545C24.5932 56.6545 24.2572 56.5239 23.9772 56.2625C23.7159 55.9825 23.5852 55.6559 23.5852 55.2825C23.5852 54.9092 23.7159 54.5825 23.9772 54.3025C24.2572 54.0225 24.5932 53.8825 24.9852 53.8825C25.3585 53.8825 25.6759 54.0225 25.9372 54.3025C26.2172 54.5825 26.3572 54.9092 26.3572 55.2825C26.3572 55.6559 26.2172 55.9825 25.9372 56.2625C25.6759 56.5239 25.3585 56.6545 24.9852 56.6545ZM30.2148 67.6025L30.4948 65.3065C31.0922 65.3065 31.5775 65.2692 31.9508 65.1945C32.3242 65.1012 32.6322 64.8865 32.8748 64.5505C33.1362 64.1959 33.3788 63.6452 33.6028 62.8985C33.8268 62.1519 34.0882 61.1065 34.3868 59.7625L36.4868 60.3505C36.4122 60.6679 36.3282 61.0319 36.2348 61.4425C36.1415 61.8345 36.0575 62.2452 35.9828 62.6745C35.9082 63.0852 35.8708 63.4679 35.8708 63.8225C35.8708 64.2892 36.0482 64.6532 36.4028 64.9145C36.7575 65.1759 37.4015 65.3065 38.3348 65.3065C38.8948 65.3065 39.3522 65.2599 39.7068 65.1665C40.0615 65.0732 40.3508 64.8492 40.5748 64.4945C40.8175 64.1399 41.0322 63.5705 41.2188 62.7865C41.4055 62.0025 41.6015 60.9292 41.8068 59.5665L43.9348 59.9585C43.8788 60.2945 43.8135 60.7052 43.7388 61.1905C43.6642 61.6759 43.5895 62.1612 43.5148 62.6465C43.4588 63.1132 43.4308 63.5052 43.4308 63.8225C43.4308 64.0839 43.4868 64.3359 43.5988 64.5785C43.7295 64.8025 43.9722 64.9799 44.3268 65.1105C44.7002 65.2412 45.2508 65.3065 45.9788 65.3065C46.5202 65.3065 46.9868 65.2412 47.3788 65.1105C47.7895 64.9799 48.0975 64.7372 48.3028 64.3825C48.5268 64.0279 48.6388 63.5332 48.6388 62.8985C48.6388 62.1892 48.4708 61.3025 48.1348 60.2385C47.8175 59.1559 47.4535 58.0825 47.0428 57.0185L49.3108 56.1785C49.5535 56.7759 49.7775 57.4572 49.9828 58.2225C50.2068 58.9879 50.3935 59.7439 50.5428 60.4905C50.6922 61.2372 50.7668 61.8905 50.7668 62.4505C50.7668 63.3092 50.6548 64.0652 50.4308 64.7185C50.2068 65.3719 49.8895 65.9132 49.4788 66.3425C49.0682 66.7532 48.5642 67.0705 47.9668 67.2945C47.3695 67.4999 46.6975 67.6025 45.9508 67.6025C45.0735 67.6025 44.3548 67.4999 43.7948 67.2945C43.2348 67.0892 42.8055 66.7812 42.5068 66.3705C42.2082 65.9412 42.0122 65.3999 41.9188 64.7465H42.8708C42.5162 65.5492 42.1428 66.1559 41.7508 66.5665C41.3588 66.9772 40.8735 67.2572 40.2948 67.4065C39.7162 67.5372 38.9508 67.6025 37.9988 67.6025C37.5322 67.6025 37.0282 67.5279 36.4868 67.3785C35.9642 67.2292 35.5068 66.9399 35.1148 66.5105C34.7228 66.0625 34.4895 65.3999 34.4148 64.5225L35.2548 64.3545C34.9375 65.3065 34.5455 66.0159 34.0788 66.4825C33.6308 66.9305 33.0895 67.2292 32.4548 67.3785C31.8202 67.5279 31.0735 67.6025 30.2148 67.6025ZM54.8846 53.9145C54.1379 53.9145 53.6433 53.6719 53.4006 53.1865C53.1579 52.6825 53.0366 52.1505 53.0366 51.5905C53.0366 51.3852 53.0459 51.1705 53.0646 50.9465C53.1019 50.7039 53.1486 50.4332 53.2046 50.1345L54.6046 49.7425C54.5486 50.0599 54.5019 50.3585 54.4646 50.6385C54.4459 50.8999 54.4366 51.1332 54.4366 51.3385C54.4366 51.6932 54.4926 51.9545 54.6046 52.1225C54.7166 52.2905 54.8939 52.3745 55.1366 52.3745C55.4166 52.3745 55.6499 52.2345 55.8366 51.9545C56.0233 51.6559 56.1259 51.0679 56.1446 50.1905V49.3505L57.4886 48.8465V50.5545C57.4886 50.8159 57.5353 51.0492 57.6286 51.2545C57.7406 51.4412 57.9646 51.5345 58.3006 51.5345C58.6366 51.5345 58.8606 51.4319 58.9726 51.2265C59.0846 51.0212 59.1406 50.7599 59.1406 50.4425C59.1406 50.1252 59.1033 49.8079 59.0286 49.4905C58.9539 49.1545 58.8513 48.8279 58.7206 48.5105L59.9806 48.1185C60.1673 48.4732 60.3166 48.8839 60.4286 49.3505C60.5593 49.7985 60.6246 50.2092 60.6246 50.5825C60.6246 51.1985 60.4473 51.7585 60.0926 52.2625C59.7566 52.7479 59.2246 52.9905 58.4966 52.9905C57.9179 52.9905 57.4419 52.8412 57.0686 52.5425C56.7139 52.2252 56.5366 51.8519 56.5366 51.4225L57.1806 51.6745C57.1806 52.3092 56.9566 52.8412 56.5086 53.2705C56.0793 53.6999 55.5379 53.9145 54.8846 53.9145ZM52.2839 73.9025L51.4719 71.7745C53.3572 71.1772 54.8039 70.4585 55.8119 69.6185C56.8385 68.7972 57.5385 67.9385 57.9119 67.0425C58.3039 66.1465 58.4999 65.2879 58.4999 64.4665C58.4999 63.9439 58.4439 63.4399 58.3319 62.9545C58.2199 62.4692 58.0239 61.9185 57.7439 61.3025C57.4639 60.6865 57.0719 59.9212 56.5679 59.0065L58.6119 57.9705C59.3212 59.1839 59.8252 60.3319 60.1239 61.4145C60.4412 62.4972 60.5999 63.4492 60.5999 64.2705C60.5999 65.4465 60.4039 66.5105 60.0119 67.4625C59.6385 68.4145 59.1345 69.2545 58.4999 69.9825C57.8839 70.7292 57.2025 71.3639 56.4559 71.8865C55.7279 72.4092 54.9905 72.8385 54.2439 73.1745C53.5159 73.5105 52.8625 73.7532 52.2839 73.9025ZM63.4331 66.2025L64.5531 64.2705C64.9265 64.5132 65.4491 64.7465 66.1211 64.9705C66.7931 65.1945 67.5771 65.3065 68.4731 65.3065C69.4065 65.3065 70.1438 65.2132 70.6851 65.0265C71.2451 64.8399 71.6465 64.5692 71.8891 64.2145C72.1505 63.8412 72.2811 63.4119 72.2811 62.9265C72.2811 62.5532 72.1971 62.0959 72.0291 61.5545C71.8798 60.9945 71.5438 60.2479 71.0211 59.3145C70.4985 58.3625 69.6958 57.1212 68.6131 55.5905L70.5451 54.3305C71.5345 55.6932 72.3185 56.9252 72.8971 58.0265C73.4945 59.1279 73.9145 60.0985 74.1571 60.9385C74.4185 61.7599 74.5491 62.4692 74.5491 63.0665C74.5491 63.8132 74.3625 64.5412 73.9891 65.2505C73.6158 65.9412 72.9905 66.5105 72.1131 66.9585C71.2358 67.4065 70.0225 67.6305 68.4731 67.6305C67.8011 67.6305 67.1478 67.5745 66.5131 67.4625C65.8971 67.3505 65.3278 67.1919 64.8051 66.9865C64.2825 66.7625 63.8251 66.5012 63.4331 66.2025Z" fill="white"/>
<defs>
<filter id="filter0_d_344_1862" x="7.6" y="0.0999999" width="60.8" height="43.2625" filterUnits="userSpaceOnUse" color-interpolation-filters="sRGB">
<feFlood flood-opacity="0" result="BackgroundImageFix"/>
<feColorMatrix in="SourceAlpha" type="matrix" values="0 0 0 0 0 0 0 0 0 0 0 0 0 0 0 0 0 0 127 0" result="hardAlpha"/>
<feOffset dy="4"/>
<feGaussianBlur stdDeviation="2.95"/>
<feComposite in2="hardAlpha" operator="out"/>
<feColorMatrix type="matrix" values="0 0 0 0 0.0117647 0 0 0 0 0.270588 0 0 0 0 0.305882 0 0 0 0.2 0"/>
<feBlend mode="normal" in2="BackgroundImageFix" result="effect1_dropShadow_344_1862"/>
<feBlend mode="normal" in="SourceGraphic" in2="effect1_dropShadow_344_1862" result="shape"/>
</filter>
</defs>
</svg>
